<svg width="30" height="30" viewBox="0 0 30 30" fill="none" xmlns="http://www.w3.org/2000/svg">
<path d="M21.849 7.2784C20.9844 7.2784 20.1458 7.50891 19.4115 7.92895C18.5885 7.10935 17.6302 6.42294 16.5729 5.90557C18.0417 4.67617 19.9115 4 21.849 4C26.349 4 30 7.58575 30 12.0167C30 14.1425 29.1406 16.1813 27.6146 17.6822L23.9115 21.3243C22.3854 22.8252 20.3125 23.6704 18.151 23.6704C13.651 23.6704 10 20.0846 10 15.6537C10 15.5768 10 15.5 10.0052 15.4232C10.0313 14.5165 10.7969 13.8045 11.7187 13.8301C12.6406 13.8557 13.3646 14.6087 13.3385 15.5154C13.3385 15.5615 13.3385 15.6076 13.3385 15.6486C13.3385 18.2661 15.4948 20.3869 18.1562 20.3869C19.4323 20.3869 20.6562 19.89 21.5625 18.9987L25.2656 15.3566C26.1667 14.4704 26.6771 13.2615 26.6771 12.0065C26.6771 9.38886 24.5208 7.26815 21.8594 7.26815L21.849 7.2784ZM14.3333 11.2381C14.2344 11.1971 14.1354 11.1408 14.0469 11.0793C13.3906 10.7463 12.6406 10.5568 11.8542 10.5568C10.5781 10.5568 9.35417 11.0537 8.44792 11.945L4.74479 15.5871C3.84375 16.4733 3.33333 17.6822 3.33333 18.9372C3.33333 21.5548 5.48958 23.6755 8.15104 23.6755C9.01042 23.6755 9.84896 23.4501 10.5833 23.0301C11.4062 23.8497 12.3646 24.5361 13.4271 25.0535C11.9583 26.2777 10.0937 26.959 8.15104 26.959C3.65104 26.959 0 23.3733 0 18.9423C0 16.8165 0.859375 14.7777 2.38542 13.2768L6.08854 9.63474C7.61458 8.13385 9.6875 7.28864 11.849 7.28864C16.3594 7.28864 20 10.9051 20 15.3258C20 15.3924 20 15.459 20 15.5256C19.9792 16.4323 19.2135 17.1443 18.2917 17.1238C17.3698 17.1033 16.6458 16.3503 16.6667 15.4437C16.6667 15.4027 16.6667 15.3668 16.6667 15.3258C16.6667 13.5996 15.7292 12.0833 14.3333 11.2483V11.2381Z" fill="white"/>
</svg>
