<svg width="30" height="30" viewBox="0 0 30 30" fill="none" xmlns="http://www.w3.org/2000/svg">
<path d="M4.2935 0.808298C3.31948 -0.163205 1.73766 -0.163205 0.763631 0.808298C-0.210395 1.7798 -0.210395 3.35752 0.763631 4.32902L11.4701 15L0.771423 25.6788C-0.202603 26.6503 -0.202603 28.228 0.771423 29.1995C1.74545 30.171 3.32727 30.171 4.30129 29.1995L15 18.5207L25.7065 29.1917C26.6805 30.1632 28.2623 30.1632 29.2364 29.1917C30.2104 28.2202 30.2104 26.6425 29.2364 25.671L18.5299 15L29.2286 4.32125C30.2026 3.34975 30.2026 1.77203 29.2286 0.800526C28.2545 -0.170976 26.6727 -0.170976 25.6987 0.800526L15 11.4793L4.2935 0.808298Z" fill="white"/>
</svg>
